<svg xmlns="http://www.w3.org/2000/svg" fill="#8B8B8B" viewBox="0 0 30 30">
  <path d="M6 4C4.895 4 4 4.895 4 6L4 24C4 25.105 4.895 26 6 26L24 26C25.105 26 26 25.105 26 24L26 6C26 4.895 25.105 4 24 4L6 4 z M 6 6L24 6L24 10L6 10L6 6 z M 11 13C11.552 13 12 13.448 12 14C12 14.552 11.552 15 11 15C10.448 15 10 14.552 10 14C10 13.448 10.448 13 11 13 z M 15 13L19 13C19.552 13 20 13.448 20 14L20 18C20 18.552 19.552 19 19 19L15 19C14.448 19 14 18.552 14 18L14 14C14 13.448 14.448 13 15 13 z M 23 13C23.552 13 24 13.448 24 14C24 14.552 23.552 15 23 15C22.448 15 22 14.552 22 14C22 13.448 22.448 13 23 13 z M 16 15L16 17L18 17L18 15L16 15 z M 7 17C7.552 17 8 17.448 8 18C8 18.552 7.552 19 7 19C6.448 19 6 18.552 6 18C6 17.448 6.448 17 7 17 z M 11 17C11.552 17 12 17.448 12 18C12 18.552 11.552 19 11 19C10.448 19 10 18.552 10 18C10 17.448 10.448 17 11 17 z M 23 17C23.552 17 24 17.448 24 18C24 18.552 23.552 19 23 19C22.448 19 22 18.552 22 18C22 17.448 22.448 17 23 17 z M 7 21C7.552 21 8 21.448 8 22C8 22.552 7.552 23 7 23C6.448 23 6 22.552 6 22C6 21.448 6.448 21 7 21 z M 11 21C11.552 21 12 21.448 12 22C12 22.552 11.552 23 11 23C10.448 23 10 22.552 10 22C10 21.448 10.448 21 11 21 z M 15 21C15.552 21 16 21.448 16 22C16 22.552 15.552 23 15 23C14.448 23 14 22.552 14 22C14 21.448 14.448 21 15 21 z M 19 21C19.552 21 20 21.448 20 22C20 22.552 19.552 23 19 23C18.448 23 18 22.552 18 22C18 21.448 18.448 21 19 21 z" />
</svg>