<svg xmlns="http://www.w3.org/2000/svg" fill="currentColor" viewBox="0 0 30 30">
  <path d="M4 3C3.448 3 3 3.448 3 4L3 10.091797C2.4187503 10.298487 2 10.848122 2 11.5C2 12.328 2.672 13 3.5 13L5 13L5 17L3.5 17C2.672 17 2 17.672 2 18.5C2 19.151878 2.4187503 19.701513 3 19.908203L3 26C3 26.552 3.448 27 4 27L5.6679688 27C6.5329688 27 7.3744062 26.718219 8.0664062 26.199219L15 21L9 21L12 19L23 19C25.056757 19 27.839889 16.67608 28.363281 16.224609 A 1.5 1.5 0 0 0 28.560547 16.058594 A 1.5 1.5 0 0 0 28.568359 16.052734L28.568359 16.050781 A 1.5 1.5 0 0 0 29 15 A 1.5 1.5 0 0 0 28.457031 13.845703C28.457031 13.845703 25.267 11 23 11L12 11L9 9L15 9L8.0664062 3.8007812C7.3734062 3.2817813 6.5329688 3 5.6679688 3L4 3 z M 24 13L25.105469 13.552734C25.653469 13.826734 26 14.387 26 15C26 15.613 25.653469 16.173266 25.105469 16.447266L24 17L24 13 z" />
</svg>