<svg xmlns="http://www.w3.org/2000/svg" width="80.667" height="75.533" viewBox="0 0 80.667 75.533"><defs><style>.a{fill:#183c4b;}.b{fill:#e66367;}.c{fill:#4aa4b6;}.d{fill:#fff;}</style></defs><g transform="translate(0 -26.067)"><path class="a" d="M42.91,70.418c.736,0,1.066.707,1.646.985.1.58.58.9.846,1.385.168.325.753.945,1.263.348.881-1.026,2.028-1.739,2.985-2.683,1.321-1.31,2.648-2.625,4.086-3.831,1.686-1.408,3.193-3.031,4.88-4.468.493-.423,1.281-.464,1.547-1.205s1.663-.829,2.22-.18c1.159,1.345.58,2.944.469,4.358-.052.707-1.211,1.617-2.057,1.907-.7.243-.753.777-1.072,1.159-1.321,1.489-3.037,2.585-4.3,4.057-1.5,1.739-3.477,2.9-5.013,4.59-.371.411-2.283.771-.365,1.739.064.035.029.226.093.307.782.968.249,2.249.8,3.309.29.58.58.58.881.3a17.79,17.79,0,0,0,3.019-2.9c1-1.518,2.677-2.156,3.721-3.547.464-.62,1.4-.9,1.82-1.542a21.57,21.57,0,0,1,3.779-3.674c1.889-1.739,3.744-3.518,5.72-5.175,2.393-2.005,4.636-4.184,6.885-6.375a.986.986,0,0,1,1.387-.131.969.969,0,0,1,.195.218,3.744,3.744,0,0,1,.985,2.851c-.064.713,0,1.773-.435,2.121-.829.62-1.234,1.571-2.1,2.138a34.747,34.747,0,0,0-5.477,5c-1.037,1.061-2.272,1.843-3.3,2.9a19.357,19.357,0,0,1-3.3,2.961c-.469.3-.655,1.037-1.119,1.327-1.634,1.008-2.782,2.538-4.178,3.8a24.776,24.776,0,0,0-2.608,2.44c-1.119,1.339-2.625,2.318-3.837,3.616-.829.875-2,1.4-2.735,2.382a16.828,16.828,0,0,1-1.374,2.133,5.7,5.7,0,0,1-3.883,1.582c-.58,0-1.159-.093-1.739-.075-.7,0-2.179,1.159-1.982,1.739.342.991-.313,1.785-.319,2.689a1,1,0,0,1-.3.58,7.616,7.616,0,0,1-4.851,2.086c-.956.133-1.339-.956-2.15-1.13-1.426-.307-1.7-1.663-2.092-2.648-.238-.58-.522-.69-.829-.643-.829.128-1.669.139-2.5.319a2.768,2.768,0,0,1-1.912,0,6.375,6.375,0,0,1-2.735-2.718c-.736-1.217-1.872-2.26-2.069-3.779,0-.1-.1-.191-.145-.29-.469-1-1.321-1.924-.881-3.129.249-.678-.127-1.536.643-2.063s1.072-1.559,1.941-2.063a1.044,1.044,0,0,0,.469-1.061c-.5-1.1-.214-2.231-.336-3.344a3.478,3.478,0,0,1,.081-1.924c.655-1.408,1.159-2.863,2.591-3.837,1.159-.806,1.8-2.225,3.118-3.037a4.123,4.123,0,0,1,2.712-.9c.661.058,1.217.18,1.71-.58,1.061-1.611,2.956-2.353,4.167-3.889a38.755,38.755,0,0,1,4.445-4.184c1.7-1.559,3.448-3.106,5.14-4.688s3.477-3.263,5.361-4.717c.58-.429.782-1.043,1.327-1.5a28.9,28.9,0,0,0,3.889-3.558c.394-.475.968-1.356,1.872-.325s1.547,4.028.753,5.083a3.352,3.352,0,0,1-1.333,1.159c-.371.156-.464.95-1.211.609-.081-.041-.07.214.058.319.272.238.07.446-.122.5-.753.2-.939,1.032-1.559,1.35s-.58,1.124-1.443,1.1c-.7,0-.458.968-.991,1.368a5.973,5.973,0,0,1-1.82.991c-.672.22-.493,1.669-1.739,1.484-.116,0,0,.238.035.371.1.261,0,.342-.261.475a7.744,7.744,0,0,0-2.092,1.739c-1.159,1.333-2.573,2.382-3.732,3.692-.093.1-.174.3-.325.145-.626-.655-.637.075-.73.359a3.308,3.308,0,0,1-1.565,1.785,1.737,1.737,0,0,0-.939,1.078C41.513,69.439,42.006,70.436,42.91,70.418ZM38.761,76.9h0a2.2,2.2,0,0,0,3.315-.162c.093-.133.185-.267.081-.394a7.076,7.076,0,0,0-2.22-2.04c-.661-.313-1.159.487-1.739.823a1.049,1.049,0,0,0-.527,1.31C37.822,76.944,38.3,76.955,38.761,76.9Zm-2.8,17.427a1.367,1.367,0,0,1,.991-.411.724.724,0,0,0,.742-.892c-.1-.753-1.061-1.107-1.043-1.965a1.516,1.516,0,0,0-.411.046A11.783,11.783,0,0,0,33.2,92.84a1.31,1.31,0,0,0-.313,1.53c.2.649,1.043.33,1.431.794,0,.029.609-.3.62-.661s-.377-.226-.58-.29c-.313-.087-.806-.1-.759-.481.058-.475.835-.771.979-.684.464.278,1.252.313,1.246,1.159-.052.075-.162.191-.145.22.116.162.185-.012.272-.1Zm3.17-6.786A3.844,3.844,0,0,0,42.557,84.4a1.174,1.174,0,0,0-.035-.33,3.749,3.749,0,0,0-1.686-2.231c-.9-.626-1.779.377-2.689.093-.029,0-.191.2-.168.238.272.539-.052.58-.44.522s-.51.214-.661.481a3.234,3.234,0,0,0,1.159,3.947c.319.2.632.516,1.09.423Zm-11.26-4.178c-.533.377-.093,1.072-.788,1.026a2.255,2.255,0,0,0-2.32,2.187c0,.061,0,.122,0,.184,0,.852.626,1.333.945,1.9.637,1.159,3.344,1.339,4.468.58.272-.18.666-.58.325-.759-.684-.336-.5-.927-.626-1.408-.226-.881-.359-1.773-1.617-1.559-.162,0-.342-.122-.278-.249C28.283,84.628,27.454,84.171,27.865,83.359ZM32.5,81.093c.191-.116.742.174.7-.168-.139-1.09.371-2.266-.371-3.263-.313-.423-.661-1.014-1.24-.892-.435.093-.51,0-.719-.313-.382-.614-1-.354-1.5-.162-.382.145-.811.307-.817.9a4.434,4.434,0,0,0,3.958,3.923ZM44.991,89.41c0,.58.145,1.211.516,1.159.551-.052,1.374-.127,1.6-.7.365-.945.927-1.912.533-3.019-.116-.319.052-.8-.5-.835-.95-.052-1.1.846-1.559,1.362-.319.354.029.493.319.58s.411.226.377.481c-.058.394-.406.238-.62.249C45.107,88.749,44.909,89,44.991,89.41Zm-9.452,5.309L35.5,94.8h.07Z" transform="translate(-8.56 -8.151)"/><path class="b" d="M39.9,67.734c-.9,0-1.385-.979-2.318-.892a1.739,1.739,0,0,1,.95-1.09A3.308,3.308,0,0,0,40.1,63.967c.1-.284.1-1.008.73-.359.151.156.232-.041.325-.145,1.159-1.31,2.573-2.353,3.732-3.692a7.744,7.744,0,0,1,2.092-1.739c.243-.127.365-.214.261-.475-.052-.133-.151-.388-.035-.371,1.223.185,1.037-1.263,1.739-1.484a5.973,5.973,0,0,0,1.82-.991c.533-.4.29-1.391.991-1.368.887.029.9-.817,1.443-1.1S54,51.09,54.756,50.9c.191-.052.4-.261.122-.5-.127-.11-.139-.359-.058-.319.748.342.84-.452,1.211-.609a3.352,3.352,0,0,0,1.333-1.159c.794-1.055.156-4.057-.753-5.083s-1.478-.151-1.872.325a28.913,28.913,0,0,1-3.923,3.587c-.545.458-.777,1.072-1.327,1.5-1.883,1.455-3.616,3.089-5.361,4.717s-3.431,3.13-5.14,4.688a38.494,38.494,0,0,0-4.445,4.184c-1.258,1.588-3.1,2.295-4.149,3.883-.493.748-1.049.62-1.71.58a4.286,4.286,0,0,0-2.712.9c-1.316.811-1.936,2.231-3.118,3.037-1.426.974-1.936,2.422-2.591,3.837A3.478,3.478,0,0,0,20.18,76.4c.122,1.107-.168,2.243.336,3.344a1.044,1.044,0,0,1-.469,1.061c-.869.5-1.159,1.524-1.941,2.063s-.394,1.385-.643,2.063c-.44,1.205.406,2.133.881,3.13.046.1.133.185.145.29.2,1.524,1.333,2.562,2.069,3.779a6.375,6.375,0,0,0,2.735,2.718,2.768,2.768,0,0,0,1.912,0c.829-.18,1.675-.191,2.5-.319.313-.046.58.046.829.643.394.985.666,2.318,2.092,2.648.811.174,1.194,1.258,2.15,1.13a7.677,7.677,0,0,0,4.851-2.086,1,1,0,0,0,.3-.58c0-.9.666-1.7.319-2.689-.2-.58,1.287-1.71,1.982-1.739.58,0,1.159.064,1.739.075a5.7,5.7,0,0,0,3.883-1.582,18.719,18.719,0,0,0,1.374-2.133c.736-.985,1.912-1.507,2.735-2.382,1.217-1.287,2.718-2.278,3.837-3.616a24.777,24.777,0,0,1,2.608-2.44c1.4-1.252,2.544-2.782,4.178-3.8.469-.29.655-1.032,1.119-1.327A19.356,19.356,0,0,0,65,71.693c1.032-1.043,2.266-1.826,3.3-2.9a36.4,36.4,0,0,1,5.477-5c.869-.58,1.275-1.518,2.1-2.138.464-.348.371-1.408.435-2.121a3.744,3.744,0,0,0-.985-2.851.985.985,0,0,0-1.364-.282,1,1,0,0,0-.218.195C71.5,58.78,69.25,60.96,66.856,62.976c-1.97,1.657-3.831,3.442-5.72,5.175a21.164,21.164,0,0,0-3.779,3.674c-.423.637-1.356.921-1.82,1.542-1.043,1.391-2.712,2.028-3.721,3.547a18.7,18.7,0,0,1-3.019,2.9c-.3.278-.58.272-.881-.3-.551-1.066,0-2.318-.8-3.309-.064-.075,0-.272-.093-.307-1.912-.985,0-1.345.365-1.739,1.518-1.681,3.518-2.822,5.013-4.59,1.263-1.5,2.979-2.585,4.3-4.057.319-.359.371-.892,1.072-1.159.84-.29,2.005-1.2,2.057-1.907.116-1.4.7-3.019-.464-4.364-.58-.649-1.936-.58-2.22.18s-1.055.782-1.547,1.205c-1.681,1.437-3.193,3.06-4.88,4.468-1.437,1.205-2.77,2.527-4.086,3.831-.956.945-2.1,1.652-2.985,2.683-.5.58-1.1,0-1.263-.348-.255-.487-.748-.823-.846-1.385a18.178,18.178,0,0,0,2.967-2.486c.887-.794,1.739-1.623,2.6-2.428,1.217-1.13,2.2-2.515,3.808-3.211.33-.145.075-.835.58-1.055a6.444,6.444,0,0,0,2.318-2.347c.041-.1,0-.29.075-.307,1.53-.469,2.092-2.127,3.628-2.759a6.389,6.389,0,0,1,5.169.284,3.353,3.353,0,0,1,1.7,2.509,6.279,6.279,0,0,1-.5,3.894.539.539,0,0,0,.087.5c.156.267.29,0,.423-.064a2.42,2.42,0,0,0,1.1-.835c.58-.956,1.657-1.42,2.318-2.318a.736.736,0,0,1,1.025-.184.719.719,0,0,1,.134.121l.255.116-.081-.232c-.255-.811.313-1.072.777-1.611.748-.875,1.9-.968,2.6-1.768.18-.209.417-.417.661-.325,1.223.458,2.591-.649,3.866.58-.064-1.066-.041-1.907-.174-2.724a3.727,3.727,0,0,1,.719-2.73,4.056,4.056,0,0,1,2.533-1.623c2.266-.226,3.86.58,5.129,2.8a4.895,4.895,0,0,1,.927,3.344c-.2,1.234-.174,2.266-1.46,3.153a6.374,6.374,0,0,1-4.341,1.159c-.232,0-.458,0-.58.249s.07.406.29.5.446.325.307.5c-.5.655-.093,1.681-.458,2.063-.684.713-.371,1.518-.58,2.237-.18.614-.51,1.113-.724,1.681-.075.191-.232.388-.382.209-.58-.742-1.113.162-1.159.278-.406.777-1.3,1.1-1.64,1.918-.11.272-.458.458-.713.666-1.849,1.518-3.57,3.164-5.291,4.828-1.159,1.13-2.544,2.133-3.657,3.321-1.9,2.017-4.184,3.553-6.149,5.459a29.411,29.411,0,0,1-2.55,2.614c-1.159.858-2.144,1.883-3.269,2.759-.939.73-1.652,1.82-2.672,2.509-1.275.864-2.11,2.156-3.292,3.135s-2.422,2.214-3.628,3.332a28.194,28.194,0,0,0-2.631,2.289c-.458.539-.713,1.339-1.785.939-.278-.1-.875.58-1.287.921a4.053,4.053,0,0,1-2.133.777c-.927.162-1.953.07-2.672.921-.191.232-.539.185-.84.116a5.214,5.214,0,0,0-3.095.133,2.493,2.493,0,0,1-1.872-.423c-2.017-1.09-4.422-1.159-6.311-2.573-1.159-.892-2.44-1.739-3.57-2.666a24.783,24.783,0,0,1-3-3.75c-.348-.44-.052-.945-.209-1.391l.127-.07h-.064a.427.427,0,0,0-.052.087c-.759,0-.9-.7-1-1.159a8.1,8.1,0,0,1-.493-2.979c.11-.771-.232-1.582-.11-2.4.238-1.64-.33-3.477.678-4.9.643-.916.516-1.976,1.008-2.834.69-1.194,1.234-2.463,2.023-3.622.637-.939,1.739-1.46,2.162-2.619.11-.29.829-1.316,1.791-1.09.5.122.406-.3.435-.58.11-.852.458-1.449,1.431-1.46.11,0,.3-.029.307-.07.162-.985.945-1.339,1.634-1.9,1.281-1.049,2.266-2.422,3.6-3.477s2.254-2.318,3.582-3.216c1.513-1.049,2.556-2.579,4.057-3.668a4.98,4.98,0,0,0,2.278-2.556c0-.035,0-.093.041-.1,1.3-.522,1.739-2.167,2.979-2.556,1.692-.539,2.249-2.092,3.477-3.031.9-.7,1.53-1.739,2.6-2.22.84-.377,1.02-1.6,2.133-1.576-.446-1,.62-.9.979-1.287a6.917,6.917,0,0,0,1.211-1.524c.029-.064.122-.156.145-.145,1.7.637,2.382-1.194,3.674-1.518.174-.041.44-.122.522-.041.7.684,1.368.122,2.017-.058a1.315,1.315,0,0,1,1.652.58A6.6,6.6,0,0,0,60.7,41.006c.325.3.469.527.214.933-.11.18-.284.475-.087.609.939.672.278,1.739.69,2.567.284.58-.342.73-.8.852.846,1.159.446,2.318-.724,3.4-.9.829-2.208,1.246-2.718,2.5a.337.337,0,0,1-.162.139c-2.028.985-3.124,3-4.793,4.352-2.492,2.017-4.526,4.52-7.036,6.479-1.014.788-1.994,1.681-2.9,2.509A20.127,20.127,0,0,0,39.9,67.734ZM77.954,53.773c-.156,1.02.614,1.739,1.037,2.562a1.31,1.31,0,0,0,2.1.249,16.346,16.346,0,0,0,1.582-1.814c.417-.533-.168-1.362.487-1.855-.765-.788-1.078-1.9-1.907-2.637-.29-.261-.73-.545-.945-.139a9.628,9.628,0,0,1-1.837,1.976A1.651,1.651,0,0,0,77.954,53.773Z" transform="translate(-5.552 -5.467)"/><path class="b" d="M99.031,35.956c-1.049-.44-2.457.388-3.315-.84-.58-.823-1.518-1.663-1.547-2.527-.064-1.681-.545-3.518.742-5.059.58-.719,3.06-1.692,4-1.414a6.506,6.506,0,0,0,1.408.156c.875.058,2.724,2.028,2.712,2.9,0,.075-.116.151-.174.232-.319.435-.51.835.272.933.359.046.3.278.2.475-.475,1.049-.371,2.318-.921,3.269A4.543,4.543,0,0,1,99.031,35.956Z" transform="translate(-39.536)"/><path class="b" d="M16.536,140.588c-.533-.649-1.252-.267-1.855-.151a1.057,1.057,0,0,1-.782-.07,22.992,22.992,0,0,1-6.114-4.735,9.409,9.409,0,0,1-1.739-3.193c-.185-.481-.464-.9-.632-1.374a22.1,22.1,0,0,1-1.356-4.352,6.393,6.393,0,0,1,0-3.257c.272-.666.307-.84,1.084-.44A2.439,2.439,0,0,1,6.6,124.466a.9.9,0,0,1,0,.753c-.255.406-.672.806.185.985-.174.8.533,1.339.632,1.97a11.473,11.473,0,0,0,.742,2.052,14.813,14.813,0,0,0,3.437,5.564c.18.191.394.156.58.232a39.607,39.607,0,0,1,3.448,1.994A1.686,1.686,0,0,1,16.536,140.588Z" transform="translate(-1.612 -40.674)"/><path class="b" d="M7.691,151.471c-.649-.51-1.159-.655-1.7-.3a.917.917,0,0,1-.29.093C5.2,149.9,3.379,151.1,2.8,149.64c-.417-1.1-1.559-1.831-1.941-3.008-.116-.354-.452-.481-.614-.765s-.429-.58-.052-.875c.226-.162.58-.655.794.064,0,.046.191.1.249.075a1.638,1.638,0,0,1,2.48.91,4.636,4.636,0,0,0,3.442,2.869c.487.1,1.066.284.614,1.037C7.523,150.335,7.65,150.793,7.691,151.471Z" transform="translate(0 -49.871)"/><path class="c" d="M50.9,113.8c-.458.093-.771-.22-1.113-.411a3.234,3.234,0,0,1-1.159-3.947c.151-.272.3-.51.661-.481s.713,0,.44-.522c0-.041.139-.249.168-.238.91.284,1.785-.713,2.689-.093a3.749,3.749,0,0,1,1.686,2.231,1.174,1.174,0,0,1,.035.33A3.8,3.8,0,0,1,50.9,113.8Zm1.408-1.8c0-.139,0-.69-.325-.516-.979.5-.864-.191-1.113-.736a1.008,1.008,0,0,0-1.252-.371c-.487.2-.1.58-.035.945.214,1.032,1.037,1.159,1.855,1.431.69.22.887,0,.869-.736Z" transform="translate(-20.339 -34.409)"/><path class="c" d="M31.059,110.861c-.411.811.417,1.269.116,1.912-.058.127.122.278.278.249,1.258-.214,1.391.678,1.617,1.559.122.481-.058,1.066.626,1.408.342.168-.052.58-.325.759-1.124.742-3.831.533-4.468-.58-.319-.58-.939-1.049-.945-1.9a2.254,2.254,0,0,1,2.134-2.368c.061,0,.122,0,.184,0C30.967,111.939,30.526,111.243,31.059,110.861Zm-.62,2.741c-.545.191-1.119.319-1.269.869s.377.707.759.892a7.387,7.387,0,0,0,1.3.58c.516.139,1.159-.133,1.055-.58-.2-.748-1.669-.458-1.646-1.628C30.654,113.66,30.48,113.62,30.439,113.6Z" transform="translate(-11.754 -35.653)"/><path class="c" d="M38.478,103.356a4.384,4.384,0,0,1-3.947-3.9c0-.58.429-.759.817-.9.5-.185,1.113-.452,1.5.162.209.336.278.406.719.313.58-.122.927.464,1.24.892.742,1,.232,2.179.371,3.263C39.219,103.506,38.669,103.211,38.478,103.356Zm.174-2.1a3.392,3.392,0,0,1-.655-.226c-.58-.342-1.252-.382-1.739-.916-.2-.232-.58-.046-.846,0-.052,0,.139.1.151.151.516,2.115.921,2.283,2.764,1.107a1.505,1.505,0,0,1,.319-.145Zm.156-.921s-.035.052-.029.07.087.093.122,0,0-.052-.029-.07a.147.147,0,0,0-.093-.029Z" transform="translate(-14.519 -30.385)"/><path class="c" d="M44.79,127.243c0-.817-.777-.852-1.246-1.159-.145-.087-.921.209-.979.684-.046.377.446.394.759.481.22.058.58-.116.58.29s-.58.69-.62.661c-.382-.458-1.223-.139-1.431-.794a1.31,1.31,0,0,1,.313-1.53,11.782,11.782,0,0,1,3.031-1.739,1.515,1.515,0,0,1,.411-.046c0,.858.939,1.211,1.043,1.965a.725.725,0,0,1-.742.892,1.368,1.368,0,0,0-.991.411Z" transform="translate(-17.545 -41.215)"/><path class="c" d="M51.273,97.757c-.464.058-.939.046-1.09-.481a1.049,1.049,0,0,1,.527-1.31c.58-.336,1.066-1.159,1.739-.823a7.076,7.076,0,0,1,2.22,2.04c.1.122,0,.261-.081.394a2.183,2.183,0,0,1-3.315.162,4.71,4.71,0,0,0,.759-.1c.272-.081.58-.133.684-.481.058-.232-.11-.325-.3-.371a.777.777,0,0,0-.9.249A1.16,1.16,0,0,0,51.273,97.757Z" transform="translate(-21.073 -29.011)"/><path class="c" d="M62.853,118.865c-.064-.406.133-.661.661-.684.22,0,.58.145.62-.249.035-.249-.156-.394-.377-.481s-.632-.249-.319-.58c.458-.516.58-1.42,1.559-1.362.58.029.388.516.5.835.394,1.107-.168,2.075-.533,3.019-.226.58-1.049.649-1.6.7C62.98,120.076,62.824,119.421,62.853,118.865Z" transform="translate(-26.422 -37.606)"/><path class="c" d="M46.492,130.461l.029.081-.07-.006Z" transform="translate(-19.531 -43.894)"/><path class="c" d="M47.057,129.682c-.087.087-.156.261-.3.07,0,0,.093-.145.145-.22Z" transform="translate(-19.661 -43.503)"/><path class="a" d="M124.892,61.653a1.651,1.651,0,0,1,.516-1.663,10.434,10.434,0,0,0,1.837-1.976c.214-.406.655-.122.945.139.829.736,1.159,1.849,1.907,2.637-.661.493-.07,1.321-.487,1.855a16.347,16.347,0,0,1-1.582,1.814,1.309,1.309,0,0,1-2.1-.249C125.507,63.38,124.736,62.673,124.892,61.653Z" transform="translate(-52.49 -13.347)"/><path class="d" d="M109.66,71.581l.081.232-.22-.093Z" transform="translate(-46.05 -19.137)"/><path class="d" d="M16.023,129.938a.427.427,0,0,1,.052-.087h.064l-.127.07Z" transform="translate(-6.732 -43.637)"/><path class="a" d="M53.048,113.761c0,.753-.18.974-.864.753-.817-.261-1.64-.4-1.855-1.431-.07-.336-.452-.742.035-.945a1.008,1.008,0,0,1,1.252.371c.249.545.133,1.24,1.113.736C53.065,113.06,53.025,113.6,53.048,113.761Z" transform="translate(-21.074 -36.154)"/><path class="a" d="M31.305,115.591c.041,0,.209.058.209.093,0,1.159,1.443.881,1.646,1.628.127.469-.539.742-1.055.58a7.388,7.388,0,0,1-1.3-.58c-.382-.185-.91-.342-.759-.892S30.76,115.788,31.305,115.591Z" transform="translate(-12.62 -37.642)"/><path class="a" d="M39.291,102.4a1.491,1.491,0,0,0-.3.1c-1.849,1.159-2.254,1.008-2.764-1.107,0-.046-.2-.145-.151-.151.284-.029.643-.22.846,0,.469.533,1.159.58,1.739.916A3.379,3.379,0,0,0,39.291,102.4Z" transform="translate(-15.165 -31.566)"/><path class="a" d="M41.832,101.731H41.9c.012,0,.035.052.029.07s-.087.093-.122,0S41.832,101.754,41.832,101.731Z" transform="translate(-17.572 -31.814)"/><path class="a" d="M52.1,98.956a1.16,1.16,0,0,1,.232-.724.776.776,0,0,1,.9-.267c.191.046.359.139.3.371-.087.348-.411.406-.684.481a4.71,4.71,0,0,1-.759.1Z" transform="translate(-21.902 -30.21)"/></g></svg>